<?xml version="1.0" encoding="iso-8859-1"?>
<!-- Generator: Adobe Illustrator 16.0.0, SVG Export Plug-In . SVG Version: 6.00 Build 0)  -->
<!DOCTYPE svg PUBLIC "-//W3C//DTD SVG 1.1//EN" "http://www.w3.org/Graphics/SVG/1.1/DTD/svg11.dtd">
<svg version="1.1" id="Capa_1" xmlns="http://www.w3.org/2000/svg" xmlns:xlink="http://www.w3.org/1999/xlink" x="0px" y="0px"
	 width="102.483px" height="102.482px" viewBox="0 0 102.483 102.482" style="enable-background:new 0 0 102.483 102.482;"
	 xml:space="preserve">
	 <defs>
    <linearGradient id="gradGreen" x1="0%" y1="0%" x2="100%" y2="0%">
      <stop offset="0%" style="stop-color:rgb(4,40,228);stop-opacity:1" />
      <stop offset="100%" style="stop-color:rgb(30,231,212);stop-opacity:1" />
    </linearGradient>
  </defs>
<g>
	<path d="M88.387,39.743l-2.587-6.15c0,0,6.017-13.583,5.489-14.101l-7.967-7.78c-0.548-0.532-14.134,5.667-14.134,5.667
		l-6.27-2.532c0,0-5.53-13.766-6.29-13.766H45.381c-0.786,0-5.909,13.796-5.909,13.796l-6.255,2.541c0,0-13.87-5.898-14.399-5.369
		l-7.955,7.784c-0.554,0.542,5.786,13.844,5.786,13.844L14.06,39.81c0,0-14.06,5.416-14.06,6.148v11.025
		c0,0.767,14.094,5.786,14.094,5.786l2.58,6.126c0,0-6.015,13.572-5.486,14.089l7.967,7.8c0.532,0.526,14.122-5.674,14.122-5.674
		l6.276,2.539c0,0,5.534,13.753,6.3,13.753h11.245c0.777,0,5.91-13.794,5.91-13.794l6.276-2.543c0,0,13.84,5.896,14.373,5.376
		l7.967-7.789c0.555-0.547-5.79-13.835-5.79-13.835l2.58-6.14c0,0,14.068-5.425,14.068-6.163v-11.02
		C102.483,44.745,88.387,39.743,88.387,39.743z M71.475,60.318c-5.25,12.187-18.263,11.629-25.82,8.904
		c0.763-1.971,2.479-4.462,3.444-6.912c0.931-0.161,4.652-0.562,7.812-1.602c0.924-0.314,1.841-0.654,2.676-1.041
		c0.835-0.383,1.602-0.783,2.19-1.225c0.301-0.212,0.575-0.407,0.78-0.637c0.209-0.212,0.417-0.366,0.52-0.561
		c0.233-0.356,0.363-0.559,0.363-0.559s-0.15,0.186-0.425,0.503c-0.116,0.179-0.349,0.302-0.574,0.486
		c-0.213,0.195-0.5,0.353-0.814,0.517c-0.616,0.353-1.403,0.654-2.252,0.928c-0.842,0.28-1.772,0.496-2.704,0.698
		c-1.866,0.373-3.77,0.595-5.189,0.722c-0.455,0.038-1.201,0.072-1.535,0.093c0.835-2.122,2.076-4.306,2.929-6.461
		c0.775-0.13,3.642-0.644,6.42-1.554c0.805-0.277,1.608-0.572,2.341-0.909c0.726-0.335,1.386-0.683,1.906-1.067
		c0.264-0.187,0.5-0.357,0.678-0.551c0.182-0.188,0.362-0.322,0.455-0.493c0.209-0.31,0.321-0.484,0.321-0.484
		s-0.133,0.158-0.373,0.438c-0.103,0.15-0.308,0.262-0.499,0.424c-0.188,0.167-0.441,0.304-0.712,0.452
		c-0.541,0.308-1.222,0.568-1.961,0.806c-0.739,0.238-1.551,0.432-2.361,0.606c-1.633,0.33-3.287,0.522-4.524,0.631
		c-0.41,0.034-0.747,0.063-1.049,0.081c0.926-2.331,1.819-4.57,2.62-6.588l0.014,0.147c0,0,2.628-0.41,5.15-1.237
		c0.623-0.214,1.242-0.441,1.816-0.705c0.559-0.258,1.075-0.529,1.479-0.826c0.206-0.147,0.387-0.277,0.523-0.428
		c0.138-0.147,0.281-0.25,0.354-0.381c0.157-0.24,0.246-0.371,0.246-0.371s-0.103,0.122-0.291,0.338
		c-0.079,0.117-0.229,0.204-0.38,0.327c-0.15,0.128-0.346,0.238-0.555,0.351c-0.417,0.238-0.944,0.445-1.52,0.63
		c-0.574,0.187-1.204,0.333-1.831,0.471c-1.262,0.251-2.549,0.402-3.507,0.489c-0.432,0.039-0.78,0.063-1.055,0.077
		c2.957-7.45,4.347-11.099,0.63-2.475c-0.362,0.849-1.167,2.618-1.167,2.618c-0.007,0.019-0.014,0.032-0.017,0.046
		c-0.2-0.137-0.534-0.385-0.986-0.735c-0.689-0.539-1.595-1.287-2.428-2.1c-0.41-0.411-0.812-0.833-1.16-1.258
		c-0.347-0.421-0.648-0.833-0.845-1.224c-0.108-0.191-0.206-0.368-0.251-0.539c-0.053-0.169-0.126-0.31-0.13-0.438
		c-0.034-0.257-0.057-0.404-0.057-0.404s0.003,0.147,0.007,0.407c-0.014,0.137,0.05,0.288,0.082,0.466
		c0.027,0.183,0.101,0.375,0.185,0.585c0.157,0.421,0.417,0.88,0.718,1.36c0.301,0.472,0.662,0.953,1.033,1.422
		c1.512,1.869,3.309,3.474,3.309,3.474l0.126-0.157c-1.163,2.548-2.354,5-3.545,7.347c-0.243-0.174-0.667-0.482-1.234-0.924
		c-0.863-0.669-1.988-1.602-3.036-2.622c-0.515-0.515-1.02-1.045-1.451-1.574c-0.428-0.525-0.806-1.044-1.057-1.528
		c-0.133-0.241-0.253-0.462-0.313-0.672c-0.065-0.214-0.161-0.389-0.168-0.549c-0.041-0.324-0.063-0.505-0.063-0.505
		s0,0.185,0.004,0.512c-0.014,0.164,0.06,0.357,0.099,0.578c0.038,0.231,0.133,0.469,0.238,0.732c0.197,0.525,0.519,1.1,0.896,1.692
		c0.375,0.595,0.828,1.194,1.29,1.783c1.886,2.334,4.139,4.34,4.139,4.34l0.027-0.024c-1.121,2.177-2.24,4.236-3.333,6.194
		c-0.305-0.22-0.883-0.644-1.656-1.239c-1.123-0.883-2.601-2.101-3.968-3.432c-0.672-0.668-1.331-1.366-1.896-2.054
		c-0.56-0.689-1.058-1.367-1.385-1.997c-0.174-0.312-0.332-0.602-0.405-0.879c-0.087-0.274-0.214-0.508-0.217-0.715
		c-0.057-0.421-0.084-0.659-0.084-0.659s0.003,0.238,0.007,0.662c-0.022,0.221,0.074,0.465,0.13,0.756
		c0.048,0.301,0.171,0.611,0.308,0.953c0.259,0.691,0.683,1.444,1.177,2.218c0.491,0.773,1.083,1.561,1.682,2.327
		c2.442,3.024,5.351,5.622,5.396,5.663c-1.093,1.913-11.837,20.194-11.837,20.194l-6.347-1.267
		c0.816-0.975,1.275,2.502,12.527-13.989c-5.866-4.147-11.571-12.758-7.194-22.904c5.67-13.165,28.331-19.257,27.872-23.851
		C61.777,15.874,77.156,47.155,71.475,60.318z" fill="url(#gradGreen)"/>
</g>
<g>
</g>
<g>
</g>
<g>
</g>
<g>
</g>
<g>
</g>
<g>
</g>
<g>
</g>
<g>
</g>
<g>
</g>
<g>
</g>
<g>
</g>
<g>
</g>
<g>
</g>
<g>
</g>
<g>
</g>
</svg>
